
<svg viewBox="0 0 512 512" xml:space="preserve" xmlns="http://www.w3.org/2000/svg"><path d="m465.396 125.714-11.411-1.652c-1.722-.25-42.832-6.201-64.115-6.042-15.832-15.906-37.547-24.978-60.008-24.978-46.752 0-84.787 38.239-84.787 85.241 0 3.883.255 7.742.762 11.541-53.717-4.755-100.217-31.095-149.769-84.568l-5.824-6.285-3.914 7.623c-7.106 13.838-19.33 54.358-9.362 84.618 7.176 21.784 24.415 44.412 41.299 60.109-14.5-2.199-32.029-6.536-47.679-12.881l-11.658-4.726 3.664 12.034c6.72 22.074 20.851 45.247 38.769 63.576 18.781 19.212 40.881 32.319 64.573 38.416-24.711 16.212-53.193 24.717-83.143 24.717-6.034 0-12.12-.358-18.087-1.064l-25.74-3.046 21.783 14.047c37.094 23.921 79.979 36.565 124.017 36.565 35.488 0 68.693-7.087 98.691-21.065 27.506-12.817 51.811-31.136 72.239-54.447 37.637-42.951 59.224-99.797 59.224-155.963 0-2.627-.046-5.3-.137-7.975l50.613-53.795zM346.669 335.537c-28.551 32.582-79.817 71.421-161.905 71.421a216.18 216.18 0 0 1-96.312-22.596c35.116-1.172 68.165-13.252 95.9-35.115l11.065-8.723-13.957-1.933c-53.248-7.373-88.57-50.908-103.015-84.496 22.542 7.46 45.398 10.905 58.888 10.905h19.684l-16.337-10.98c-18.92-12.716-43.685-40.366-52.315-66.564-7.251-22.013-.344-51.681 5.268-67.302 51.82 53.824 101.217 79.25 159.176 82.18l7.943.402-1.794-7.748c-1.25-5.395-1.883-11.016-1.883-16.706 0-40.385 32.652-73.241 72.787-73.241 20.051 0 39.412 8.427 53.118 23.119l1.864 1.999 2.731-.095c13.228-.458 38.442 2.438 53.181 4.325l-38.177 40.574.113 2.533c.15 3.343.226 6.703.226 9.986 0 53.298-20.501 107.261-56.249 148.055z" fill="#ffffff" class="fill-000000"></path></svg>